# xmcd
#
# Track frame offsets: 
#        150
#        16500
#        33825
#
# Disc length: 773 seconds
#
# Revision: 0
# Processed by: cddbd v1.5.2PL0 Copyright (c) Steve Scherf et al.
# Submitted via: ExactAudioCopy v1.0b1
#
DISCID=10030303
DTITLE=Jamie Dee - People (Everybody Needs Love) CDM
DYEAR=1994
DGENRE=Eurodance
TTITLE0=People (Everybody Needs Love) (Pop Mix)
TTITLE1=People (Everybody Needs Love) (Album Mix)
TTITLE2=People (Everybody Needs Love) (Club Mix)
EXTD=
EXTT0=
EXTT1=
EXTT2=
PLAYORDER=
